<svg width="142" height="139" viewBox="0 0 142 139" fill="none" xmlns="http://www.w3.org/2000/svg">
<g clip-path="url(#clip0_2021_101)">
<path d="M86.9442 102.563C86.9442 93.7553 79.8057 86.6151 71 86.6151C62.1943 86.6151 55.0558 93.7553 55.0558 102.563V123.052C55.0558 131.86 62.1943 139 71 139C79.8057 139 86.9442 131.86 86.9442 123.052V102.563Z" fill="white"/>
<path d="M18.876 37.7613C29.3009 37.7613 37.7519 29.3082 37.7519 18.8807C37.7519 8.45316 29.3009 0 18.876 0C8.45106 0 0 8.45316 0 18.8807C0 29.3082 8.45106 37.7613 18.876 37.7613Z" fill="white"/>
<path d="M18.9184 50.4441H18.8335C10.0512 50.4441 2.93176 57.5653 2.93176 66.3497V123.094C2.93176 131.879 10.0512 139 18.8335 139H18.9184C27.7007 139 34.8202 131.879 34.8202 123.094V66.3497C34.8202 57.5653 27.7007 50.4441 18.9184 50.4441Z" fill="white"/>
<path d="M27.7353 53.2929C20.3561 48.4867 10.4788 50.5741 5.67385 57.9552C0.868888 65.3363 2.95575 75.216 10.335 80.0221L62.6141 114.072C69.9934 118.878 79.8706 116.791 84.6756 109.41C89.4806 102.029 87.3937 92.1488 80.0144 87.3427L27.7353 53.2929Z" fill="white"/>
<path d="M123.124 37.7613C133.549 37.7613 142 29.3082 142 18.8807C142 8.45316 133.549 0 123.124 0C112.699 0 104.248 8.45316 104.248 18.8807C104.248 29.3082 112.699 37.7613 123.124 37.7613Z" fill="white"/>
<path d="M123.082 139.004H123.167C131.949 139.004 139.068 131.882 139.068 123.098V66.3532C139.068 57.5688 131.949 50.4476 123.167 50.4476H123.082C114.299 50.4476 107.18 57.5688 107.18 66.3532L107.18 123.098C107.18 131.882 114.299 139.004 123.082 139.004Z" fill="white"/>
<path d="M61.9907 87.3454C54.6114 92.1516 52.5246 102.031 57.3295 109.412C62.1345 116.793 72.0118 118.881 79.391 114.075L131.67 80.0249C139.049 75.2187 141.136 65.339 136.331 57.9579C131.526 50.5769 121.649 48.4895 114.27 53.2956L61.9907 87.3454Z" fill="white"/>
</g>
<defs>
<clipPath id="clip0_2021_101">
<rect width="142" height="139" fill="white"/>
</clipPath>
</defs>
</svg>
