<svg width="29" height="28" viewBox="0 0 29 28" fill="none" xmlns="http://www.w3.org/2000/svg">
<path d="M4.26653 7.3548C6.29731 7.3548 7.94358 5.70837 7.94358 3.6774C7.94358 1.64643 6.29731 0 4.26653 0C2.23575 0 0.589478 1.64643 0.589478 3.6774C0.589478 5.70837 2.23575 7.3548 4.26653 7.3548Z" fill="#3B82F6"/>
<path d="M4.27486 9.82495H4.25831C2.54751 9.82495 1.16064 11.212 1.16064 12.9229V23.9751C1.16064 25.6861 2.54751 27.0731 4.25831 27.0731H4.27486C5.98565 27.0731 7.37252 25.6861 7.37252 23.9751V12.9229C7.37252 11.212 5.98565 9.82495 4.27486 9.82495Z" fill="#3B82F6"/>
<path d="M5.99238 10.38C4.5549 9.4439 2.63081 9.85046 1.6948 11.2881C0.758786 12.7257 1.16531 14.65 2.60279 15.5861L12.7868 22.218C14.2243 23.1541 16.1484 22.7475 17.0844 21.3099C18.0204 19.8723 17.6139 17.948 16.1764 17.0119L5.99238 10.38Z" fill="#3B82F6"/>
<path d="M24.5741 7.3548C26.6049 7.3548 28.2512 5.70837 28.2512 3.6774C28.2512 1.64643 26.6049 0 24.5741 0C22.5434 0 20.8971 1.64643 20.8971 3.6774C20.8971 5.70837 22.5434 7.3548 24.5741 7.3548Z" fill="#3B82F6"/>
<path d="M24.566 27.0737H24.5825C26.2933 27.0737 27.6802 25.6867 27.6802 23.9758V12.9236C27.6802 11.2126 26.2933 9.82561 24.5825 9.82561H24.566C22.8552 9.82561 21.4683 11.2126 21.4683 12.9236V23.9758C21.4683 25.6867 22.8552 27.0737 24.566 27.0737Z" fill="#3B82F6"/>
<path d="M12.6655 17.0123C11.228 17.9484 10.8215 19.8727 11.7575 21.3103C12.6935 22.7479 14.6176 23.1545 16.0551 22.2184L26.2391 15.5865C27.6765 14.6504 28.0831 12.7261 27.1471 11.2885C26.211 9.85086 24.287 9.4443 22.8495 10.3804L12.6655 17.0123Z" fill="#3B82F6"/>
</svg>
