<svg width="21" height="20" viewBox="0 0 21 20" fill="none" xmlns="http://www.w3.org/2000/svg">
<path d="M9.15362 9.56888H3.65362M3.56897 9.86038L1.23405 16.8351C1.05062 17.383 0.958898 17.657 1.02472 17.8257C1.08188 17.9722 1.20464 18.0833 1.35612 18.1256C1.53056 18.1743 1.79403 18.0557 2.32096 17.8186L19.0324 10.2984C19.5468 10.067 19.8039 9.95125 19.8834 9.79049C19.9525 9.65082 19.9525 9.48695 19.8834 9.34728C19.8039 9.18652 19.5468 9.07079 19.0324 8.83935L2.31513 1.31661C1.78979 1.0802 1.52712 0.962 1.35285 1.01049C1.20151 1.0526 1.07876 1.16338 1.02141 1.30963C0.955362 1.47802 1.0461 1.7514 1.22757 2.29815L3.56962 9.35441C3.60079 9.44832 3.61637 9.49527 3.62252 9.54329C3.62798 9.5859 3.62793 9.62904 3.62236 9.67164C3.61608 9.71964 3.60038 9.76656 3.56897 9.86038Z" stroke="black" stroke-width="2" stroke-linecap="round" stroke-linejoin="round"/>
</svg>
